<svg width="204" height="67" viewBox="0 0 204 67" fill="none" xmlns="http://www.w3.org/2000/svg">
<g filter="url(#filter0_d_992_11221)">
<path d="M186.886 9H6.1138C2.73724 9 0 11.7372 0 15.1138V47.9634C0 51.3399 2.73724 54.0772 6.1138 54.0772H186.886C190.263 54.0772 193 51.3399 193 47.9634V15.1138C193 11.7372 190.263 9 186.886 9Z" fill="white"/>
<path d="M186.886 9.1274H6.11381C2.8076 9.1274 0.12738 11.8076 0.12738 15.1138V47.9634C0.12738 51.2696 2.8076 53.9498 6.11381 53.9498H186.886C190.193 53.9498 192.873 51.2696 192.873 47.9634V15.1138C192.873 11.8076 190.193 9.1274 186.886 9.1274Z" stroke="#1E1E1E" stroke-opacity="0.2" stroke-width="0.254742"/>
<path d="M32.5219 18.6231H14.2367C11.6887 18.6231 9.62311 20.6887 9.62311 23.2368V39.8404C9.62311 42.3884 11.6887 44.454 14.2367 44.454H32.5219C35.0699 44.454 37.1355 42.3884 37.1355 39.8404V23.2368C37.1355 20.6887 35.0699 18.6231 32.5219 18.6231Z" fill="#1E1E1E"/>
<path d="M23.2024 28.2883L15.8489 28.6101L17.1609 29.9542L21.9085 29.7465L23.2024 28.2883Z" fill="white"/>
<path d="M17.4165 37.2324L16.2034 38.687L24.3565 38.3298L23.0445 36.9857L17.4165 37.2324Z" fill="white"/>
<path d="M20.8107 33.7768L24.5696 29.771L24.0028 28.2538L19.7367 32.7998L20.8107 33.7768Z" fill="white"/>
<path d="M18.7684 33.831L15.6364 37.1679L16.2038 38.6859L19.8534 34.7963L18.7684 33.831Z" fill="white"/>
<path d="M15.849 28.6096L24.8154 36.7661L24.3567 38.3288L23.0447 36.9847L15.3903 30.1724L15.849 28.6096Z" fill="white"/>
<path d="M29.7567 24.4242L22.4025 24.7459L23.7146 26.0901L28.4621 25.8823L29.7567 24.4242Z" fill="white"/>
<path d="M23.9708 33.3685L22.7571 34.823L30.9103 34.4659L29.5989 33.1217L23.9708 33.3685Z" fill="white"/>
<path d="M27.3638 29.914L31.1228 25.9082L30.5554 24.3902L26.2892 28.9364L27.3638 29.914Z" fill="white"/>
<path d="M25.3216 29.9674L22.1902 33.3043L22.757 34.8224L26.4066 30.9328L25.3216 29.9674Z" fill="white"/>
<path d="M22.4021 24.7472L31.3685 32.9037L30.9098 34.4665L29.5984 33.1223L21.9434 26.31L22.4021 24.7472Z" fill="white"/>
<path d="M49.6009 40.3371L46.221 35.3218V40.3371H41.9471V24.201H46.221V32.9014L49.6009 28.1043H54.7252L49.9061 34.2534L54.8124 40.3371H49.6009Z" fill="#1E1E1E"/>
<path d="M57.0416 26.9704C56.2856 26.9704 55.675 26.7669 55.2099 26.3598C54.7592 25.9382 54.5339 25.4149 54.5339 24.7898C54.5339 24.1502 54.7592 23.6196 55.2099 23.198C55.675 22.7765 56.2856 22.5656 57.0416 22.5656C57.7828 22.5656 58.3792 22.7765 58.8295 23.198C59.2946 23.6196 59.5271 24.1502 59.5271 24.7898C59.5271 25.4149 59.2946 25.9382 58.8295 26.3598C58.3792 26.7669 57.7828 26.9704 57.0416 26.9704ZM59.1566 28.1043V40.3371H54.8828V28.1043H59.1566Z" fill="#1E1E1E"/>
<path d="M59.7101 34.2098C59.7101 32.9451 59.9353 31.8402 60.3863 30.8953C60.8513 29.9504 61.4839 29.2236 62.2834 28.7148C63.0829 28.206 63.9695 27.9516 64.9439 27.9516C65.7286 27.9516 66.4262 28.1188 67.0367 28.4531C67.662 28.7729 68.1491 29.2163 68.4976 29.7833V24.201H72.7939V40.3371H68.4976V38.6363C68.1632 39.2032 67.6908 39.6539 67.0803 39.9882C66.4698 40.3226 65.75 40.4898 64.9218 40.4898C63.948 40.4898 63.0608 40.2354 62.2613 39.7265C61.4766 39.2178 60.8513 38.4909 60.3863 37.546C59.9353 36.5865 59.7101 35.4745 59.7101 34.2098ZM68.5197 34.2098C68.5197 33.4248 68.3019 32.807 67.8657 32.3563C67.4442 31.9057 66.9208 31.6803 66.2955 31.6803C65.6556 31.6803 65.1255 31.9057 64.704 32.3563C64.2824 32.7924 64.0713 33.4102 64.0713 34.2098C64.0713 34.9948 64.2824 35.6199 64.704 36.0851C65.1255 36.5357 65.6556 36.761 66.2955 36.761C66.9208 36.761 67.4442 36.5357 67.8657 36.0851C68.3019 35.6344 68.5197 35.0093 68.5197 34.2098Z" fill="#1E1E1E"/>
<path d="M79.258 40.4898C78.1529 40.4898 77.1645 40.308 76.2926 39.9446C75.4348 39.5666 74.7513 39.0579 74.2427 38.4182C73.7481 37.764 73.472 37.03 73.4137 36.2159H77.5572C77.6155 36.6084 77.7971 36.9136 78.102 37.1317C78.4076 37.3498 78.7855 37.4588 79.2359 37.4588C79.585 37.4588 79.8611 37.3861 80.0648 37.2407C80.2679 37.0954 80.3697 36.9064 80.3697 36.6738C80.3697 36.3685 80.2029 36.1432 79.8685 35.9978C79.5341 35.8525 78.9819 35.6926 78.2112 35.5181C77.3387 35.3436 76.6123 35.1474 76.0306 34.9294C75.4489 34.7113 74.9403 34.3551 74.504 33.8609C74.0825 33.3667 73.8721 32.6979 73.8721 31.8548C73.8721 31.1279 74.0684 30.4738 74.4605 29.8923C74.8532 29.2963 75.4275 28.8239 76.1834 28.4749C76.954 28.126 77.8768 27.9516 78.9524 27.9516C80.5513 27.9516 81.8092 28.3441 82.7253 29.1291C83.6407 29.9141 84.1714 30.9462 84.3169 32.2255H80.4569C80.3845 31.833 80.2102 31.535 79.9341 31.3314C79.6721 31.1134 79.3163 31.0043 78.8653 31.0043C78.5168 31.0043 78.2474 31.0698 78.0584 31.2006C77.8842 31.3314 77.7971 31.5132 77.7971 31.7457C77.7971 32.0365 77.9639 32.2618 78.2983 32.4217C78.6327 32.5671 79.1709 32.7197 79.912 32.8797C80.7986 33.0686 81.5331 33.2794 82.1141 33.512C82.7105 33.7446 83.2265 34.1226 83.6628 34.6459C84.1131 35.1547 84.3383 35.8525 84.3383 36.7392C84.3383 37.4515 84.1279 38.0911 83.7064 38.6581C83.2989 39.225 82.7105 39.6757 81.9399 40.01C81.184 40.3299 80.29 40.4898 79.258 40.4898Z" fill="#1E1E1E"/>
<path d="M84.5595 34.2098C84.5595 32.9451 84.8209 31.8402 85.3442 30.8953C85.8676 29.9504 86.5947 29.2236 87.5249 28.7148C88.4698 28.206 89.546 27.9516 90.7523 27.9516C92.3077 27.9516 93.6158 28.3804 94.6773 29.2381C95.7388 30.0813 96.4216 31.266 96.7272 32.7924H92.1917C91.9297 31.9929 91.4211 31.5931 90.6651 31.5931C90.127 31.5931 89.6981 31.8184 89.3785 32.2691C89.0729 32.7052 88.9208 33.3521 88.9208 34.2098C88.9208 35.0675 89.0729 35.7216 89.3785 36.1723C89.6981 36.6229 90.127 36.8482 90.6651 36.8482C91.4358 36.8482 91.9444 36.4485 92.1917 35.6489H96.7272C96.4216 37.1608 95.7388 38.3455 94.6773 39.2032C93.6158 40.0609 92.3077 40.4898 90.7523 40.4898C89.546 40.4898 88.4698 40.2354 87.5249 39.7265C86.5947 39.2178 85.8676 38.4909 85.3442 37.546C84.8209 36.6011 84.5595 35.4891 84.5595 34.2098Z" fill="#1E1E1E"/>
<path d="M101.594 24.201V40.3371H97.3196V24.201H101.594Z" fill="#1E1E1E"/>
<path d="M115.362 28.1043V40.3371H111.065V38.5927C110.702 39.1451 110.201 39.5957 109.561 39.9446C108.922 40.2789 108.187 40.4461 107.359 40.4461C105.934 40.4461 104.808 39.9809 103.979 39.0506C103.165 38.1057 102.758 36.8265 102.758 35.2128V28.1043H107.01V34.6677C107.01 35.3655 107.191 35.9179 107.555 36.3249C107.933 36.7174 108.427 36.9136 109.038 36.9136C109.663 36.9136 110.157 36.7174 110.521 36.3249C110.884 35.9179 111.065 35.3655 111.065 34.6677V28.1043H115.362Z" fill="#1E1E1E"/>
<path d="M120.885 29.8051C121.219 29.2236 121.692 28.7729 122.302 28.4531C122.913 28.1188 123.633 27.9516 124.461 27.9516C125.435 27.9516 126.314 28.206 127.1 28.7148C127.899 29.2236 128.525 29.9504 128.975 30.8953C129.44 31.8402 129.673 32.9451 129.673 34.2098C129.673 35.4745 129.44 36.5865 128.975 37.546C128.525 38.4909 127.899 39.2178 127.1 39.7265C126.314 40.2354 125.435 40.4898 124.461 40.4898C123.633 40.4898 122.913 40.3299 122.302 40.01C121.692 39.6757 121.219 39.2178 120.885 38.6363V40.3371H116.612V24.201H120.885V29.8051ZM125.333 34.2098C125.333 33.4102 125.116 32.7924 124.679 32.3563C124.258 31.9057 123.734 31.6803 123.109 31.6803C122.484 31.6803 121.954 31.9057 121.518 32.3563C121.096 32.807 120.885 33.4248 120.885 34.2098C120.885 35.0093 121.096 35.6344 121.518 36.0851C121.954 36.5357 122.484 36.761 123.109 36.761C123.734 36.761 124.258 36.5357 124.679 36.0851C125.116 35.6199 125.333 34.9948 125.333 34.2098Z" fill="#1E1E1E"/>
<path d="M134.305 36.7828H139.517V40.3371H129.595V36.9573L134.458 31.6585H129.639V28.1043H139.343V31.4841L134.305 36.7828Z" fill="#1E1E1E"/>
<path d="M145.81 40.4898C144.589 40.4898 143.491 40.2354 142.518 39.7265C141.558 39.2178 140.802 38.4909 140.25 37.546C139.697 36.6011 139.421 35.4891 139.421 34.2098C139.421 32.9451 139.697 31.8402 140.25 30.8953C140.817 29.9504 141.58 29.2236 142.539 28.7148C143.514 28.206 144.611 27.9516 145.832 27.9516C147.053 27.9516 148.144 28.206 149.103 28.7148C150.077 29.2236 150.84 29.9504 151.392 30.8953C151.959 31.8402 152.243 32.9451 152.243 34.2098C152.243 35.4745 151.959 36.5865 151.392 37.546C150.84 38.4909 150.077 39.2178 149.103 39.7265C148.129 40.2354 147.031 40.4898 145.81 40.4898ZM145.81 36.7828C146.406 36.7828 146.9 36.5648 147.293 36.1286C147.7 35.678 147.904 35.0384 147.904 34.2098C147.904 33.3811 147.7 32.7488 147.293 32.3127C146.9 31.8766 146.413 31.6585 145.832 31.6585C145.251 31.6585 144.763 31.8766 144.371 32.3127C143.979 32.7488 143.782 33.3811 143.782 34.2098C143.782 35.0529 143.971 35.6926 144.349 36.1286C144.727 36.5648 145.214 36.7828 145.81 36.7828Z" fill="#1E1E1E"/>
<path d="M160.802 27.9952C162.212 27.9952 163.331 28.4677 164.16 29.4126C164.988 30.3429 165.402 31.6077 165.402 33.2067V40.3371H161.129V33.7736C161.129 33.0759 160.947 32.5307 160.583 32.1382C160.22 31.7313 159.733 31.5277 159.122 31.5277C158.483 31.5277 157.981 31.7313 157.618 32.1382C157.255 32.5307 157.073 33.0759 157.073 33.7736V40.3371H152.799V28.1043H157.073V29.8487C157.451 29.2963 157.96 28.8529 158.599 28.5185C159.239 28.1697 159.973 27.9952 160.802 27.9952Z" fill="#1E1E1E"/>
<path d="M178.253 34.0789C178.253 34.4133 178.231 34.7476 178.187 35.082H170.098C170.142 35.7507 170.323 36.2522 170.643 36.5865C170.977 36.9064 171.399 37.0663 171.907 37.0663C172.62 37.0663 173.128 36.7465 173.434 36.1069H177.992C177.803 36.95 177.431 37.7059 176.879 38.3746C176.342 39.0288 175.658 39.5449 174.829 39.9228C174.001 40.3008 173.085 40.4898 172.082 40.4898C170.875 40.4898 169.8 40.2354 168.855 39.7265C167.925 39.2178 167.19 38.4909 166.652 37.546C166.129 36.6011 165.867 35.4891 165.867 34.2098C165.867 32.9305 166.129 31.8257 166.652 30.8953C167.176 29.9504 167.903 29.2236 168.833 28.7148C169.778 28.206 170.861 27.9516 172.082 27.9516C173.289 27.9516 174.357 28.1987 175.288 28.693C176.218 29.1873 176.945 29.8996 177.468 30.8299C177.992 31.7457 178.253 32.8287 178.253 34.0789ZM173.892 33.0105C173.892 32.4872 173.717 32.0801 173.368 31.7893C173.02 31.4841 172.584 31.3314 172.06 31.3314C171.537 31.3314 171.108 31.4768 170.773 31.7676C170.439 32.0437 170.221 32.4581 170.119 33.0105H173.892Z" fill="#1E1E1E"/>
<path d="M180.891 40.5115C180.135 40.5115 179.525 40.308 179.059 39.901C178.609 39.4794 178.384 38.9488 178.384 38.3092C178.384 37.6695 178.609 37.139 179.059 36.7174C179.525 36.2958 180.135 36.0851 180.891 36.0851C181.632 36.0851 182.228 36.2958 182.679 36.7174C183.144 37.139 183.377 37.6695 183.377 38.3092C183.377 38.9343 183.144 39.4576 182.679 39.8792C182.228 40.3008 181.632 40.5115 180.891 40.5115Z" fill="#1E1E1E"/>
</g>
<defs>
<filter id="filter0_d_992_11221" x="-10.1897" y="0.848255" width="213.379" height="65.4566" filterUnits="userSpaceOnUse" color-interpolation-filters="sRGB">
<feFlood flood-opacity="0" result="BackgroundImageFix"/>
<feColorMatrix in="SourceAlpha" type="matrix" values="0 0 0 0 0 0 0 0 0 0 0 0 0 0 0 0 0 0 127 0" result="hardAlpha"/>
<feOffset dy="2.03793"/>
<feGaussianBlur stdDeviation="5.09484"/>
<feComposite in2="hardAlpha" operator="out"/>
<feColorMatrix type="matrix" values="0 0 0 0 0 0 0 0 0 0 0 0 0 0 0 0 0 0 0.05 0"/>
<feBlend mode="normal" in2="BackgroundImageFix" result="effect1_dropShadow_992_11221"/>
<feBlend mode="normal" in="SourceGraphic" in2="effect1_dropShadow_992_11221" result="shape"/>
</filter>
</defs>
</svg>
